<svg width="70" height="70" viewBox="0 0 70 70" fill="none" xmlns="http://www.w3.org/2000/svg">
<path d="M69.7906 39.9267L65.3165 31.7701C64.0536 29.4677 61.6379 28.0376 59.0121 28.0376H49.6566V13.9972C49.6566 13.0594 48.8963 12.2991 47.9585 12.2991H1.69813C0.760279 12.2991 0 13.0594 0 13.9972V51.7511C0 52.6889 0.760279 53.4492 1.69813 53.4492H6.76148C7.49435 55.9047 9.77203 57.7004 12.4626 57.7004C15.1532 57.7004 17.4309 55.9047 18.1637 53.4492H47.9582H51.5738C52.3066 55.9047 54.5843 57.7004 57.2749 57.7004C59.9655 57.7004 62.2432 55.9047 62.976 53.4492H68.3016C69.2395 53.4492 69.9997 52.6889 69.9997 51.7511V40.7433C70 40.458 69.9279 40.1771 69.7906 39.9267ZM3.39627 15.6953H46.2601V50.053H18.1637C17.4309 47.5975 15.1532 45.8016 12.4626 45.8016C9.77203 45.8016 7.49435 47.5975 6.76148 50.053H3.39627V15.6953ZM15.0156 51.7513C15.0156 53.1591 13.8701 54.3044 12.4626 54.3044C11.0551 54.3044 9.90958 53.1591 9.90958 51.7513C9.90958 50.3436 11.0551 49.1981 12.4626 49.1981C13.8701 49.1981 15.0156 50.3436 15.0156 51.7513ZM59.8282 51.7513C59.8282 53.1591 58.6827 54.3044 57.2751 54.3044C55.8676 54.3044 54.7221 53.1591 54.7221 51.7513C54.7221 50.3436 55.8676 49.1981 57.2751 49.1981C58.6827 49.1981 59.8282 50.3436 59.8282 51.7513ZM66.6037 50.0532H62.9763C62.2434 47.5977 59.9657 45.8018 57.2751 45.8018C54.5846 45.8018 52.3069 47.5977 51.574 50.0532H49.6566V31.4339H59.0121C60.3978 31.4339 61.6723 32.1886 62.3387 33.4037L66.6037 41.1788V50.0532Z" fill="#5973FB"/>
<path d="M20.8492 30.2255H32.9353L30.6516 32.5093C29.9886 33.1723 29.9886 34.2477 30.6516 34.9107C30.9832 35.2423 31.4179 35.408 31.8524 35.408C32.2869 35.408 32.7216 35.242 33.0532 34.9107L37.7747 30.1891C38.691 29.2729 38.691 27.7817 37.7747 26.8654L33.0532 22.1439C32.39 21.4809 31.3148 21.4809 30.6516 22.1439C29.9886 22.8069 29.9886 23.8823 30.6516 24.5453L32.9353 26.829H20.8492C19.9113 26.829 19.1511 27.5893 19.1511 28.5271C19.1511 29.465 19.9113 30.2255 20.8492 30.2255Z" fill="#5973FB"/>
<path d="M16.6029 43.6044C16.9345 43.936 17.369 44.1017 17.8037 44.1017C18.2382 44.1017 18.6729 43.9358 19.0043 43.6044C19.6676 42.9414 19.6676 41.866 19.0046 41.203L16.7208 38.9192H28.8069C29.7448 38.9192 30.505 38.159 30.505 37.2211C30.505 36.2833 29.7448 35.523 28.8069 35.523H16.721L19.0048 33.2392C19.6678 32.5762 19.6678 31.5008 19.0048 30.8378C18.3416 30.1748 17.2664 30.1748 16.6031 30.8378L11.8816 35.5594C11.4379 36.0033 11.1934 36.5935 11.1934 37.2214C11.1934 37.8492 11.4379 38.4394 11.8816 38.8831L16.6029 43.6044Z" fill="#5973FB"/>
</svg>
